<mxfile host="app.diagrams.net" modified="2022-01-22T23:41:10.552Z" agent="5.0 (Macintosh; Intel Mac OS X 10_15_7) AppleWebKit/537.36 (KHTML, like Gecko) Chrome/97.0.4692.71 Safari/537.36" etag="LyQs1tNDQgbvxXnEsrx2" version="16.4.5" type="github">
  <diagram id="CRy11SqYYQaUP_ReXCa_" name="Page-1">
    <mxGraphModel dx="2276" dy="798" grid="1" gridSize="10" guides="1" tooltips="1" connect="1" arrows="1" fold="1" page="1" pageScale="1" pageWidth="850" pageHeight="1100" math="0" shadow="0">
      <root>
        <mxCell id="0" />
        <mxCell id="1" parent="0" />
        <mxCell id="qKPnsL4N-a03p9FC6tCx-3" value="" style="edgeStyle=orthogonalEdgeStyle;rounded=0;orthogonalLoop=1;jettySize=auto;html=1;" edge="1" parent="1" source="qKPnsL4N-a03p9FC6tCx-1" target="qKPnsL4N-a03p9FC6tCx-2">
          <mxGeometry relative="1" as="geometry" />
        </mxCell>
        <mxCell id="qKPnsL4N-a03p9FC6tCx-1" value="Material App" style="rounded=1;whiteSpace=wrap;html=1;" vertex="1" parent="1">
          <mxGeometry x="365" y="180" width="120" height="60" as="geometry" />
        </mxCell>
        <mxCell id="qKPnsL4N-a03p9FC6tCx-5" value="" style="edgeStyle=orthogonalEdgeStyle;rounded=0;orthogonalLoop=1;jettySize=auto;html=1;" edge="1" parent="1" source="qKPnsL4N-a03p9FC6tCx-2" target="qKPnsL4N-a03p9FC6tCx-4">
          <mxGeometry relative="1" as="geometry" />
        </mxCell>
        <mxCell id="qKPnsL4N-a03p9FC6tCx-7" value="" style="edgeStyle=orthogonalEdgeStyle;rounded=0;orthogonalLoop=1;jettySize=auto;html=1;" edge="1" parent="1" source="qKPnsL4N-a03p9FC6tCx-2" target="qKPnsL4N-a03p9FC6tCx-6">
          <mxGeometry relative="1" as="geometry" />
        </mxCell>
        <mxCell id="qKPnsL4N-a03p9FC6tCx-2" value="Scaffold" style="whiteSpace=wrap;html=1;rounded=1;" vertex="1" parent="1">
          <mxGeometry x="365" y="320" width="120" height="60" as="geometry" />
        </mxCell>
        <mxCell id="qKPnsL4N-a03p9FC6tCx-9" value="" style="edgeStyle=orthogonalEdgeStyle;rounded=0;orthogonalLoop=1;jettySize=auto;html=1;" edge="1" parent="1" source="qKPnsL4N-a03p9FC6tCx-4" target="qKPnsL4N-a03p9FC6tCx-8">
          <mxGeometry relative="1" as="geometry" />
        </mxCell>
        <mxCell id="qKPnsL4N-a03p9FC6tCx-13" value="" style="edgeStyle=orthogonalEdgeStyle;rounded=0;orthogonalLoop=1;jettySize=auto;html=1;" edge="1" parent="1" source="qKPnsL4N-a03p9FC6tCx-4" target="qKPnsL4N-a03p9FC6tCx-12">
          <mxGeometry relative="1" as="geometry" />
        </mxCell>
        <mxCell id="qKPnsL4N-a03p9FC6tCx-15" value="" style="edgeStyle=orthogonalEdgeStyle;rounded=0;orthogonalLoop=1;jettySize=auto;html=1;" edge="1" parent="1" source="qKPnsL4N-a03p9FC6tCx-4" target="qKPnsL4N-a03p9FC6tCx-14">
          <mxGeometry relative="1" as="geometry" />
        </mxCell>
        <mxCell id="qKPnsL4N-a03p9FC6tCx-4" value="AppBar" style="whiteSpace=wrap;html=1;rounded=1;" vertex="1" parent="1">
          <mxGeometry x="165" y="320" width="120" height="60" as="geometry" />
        </mxCell>
        <mxCell id="qKPnsL4N-a03p9FC6tCx-11" value="" style="edgeStyle=orthogonalEdgeStyle;rounded=0;orthogonalLoop=1;jettySize=auto;html=1;" edge="1" parent="1" source="qKPnsL4N-a03p9FC6tCx-6" target="qKPnsL4N-a03p9FC6tCx-10">
          <mxGeometry relative="1" as="geometry" />
        </mxCell>
        <mxCell id="qKPnsL4N-a03p9FC6tCx-6" value="Center" style="whiteSpace=wrap;html=1;rounded=1;" vertex="1" parent="1">
          <mxGeometry x="565" y="320" width="120" height="60" as="geometry" />
        </mxCell>
        <mxCell id="qKPnsL4N-a03p9FC6tCx-8" value="Text" style="whiteSpace=wrap;html=1;rounded=1;" vertex="1" parent="1">
          <mxGeometry x="165" y="460" width="120" height="60" as="geometry" />
        </mxCell>
        <mxCell id="qKPnsL4N-a03p9FC6tCx-17" value="" style="edgeStyle=orthogonalEdgeStyle;rounded=0;orthogonalLoop=1;jettySize=auto;html=1;" edge="1" parent="1" source="qKPnsL4N-a03p9FC6tCx-10" target="qKPnsL4N-a03p9FC6tCx-16">
          <mxGeometry relative="1" as="geometry" />
        </mxCell>
        <mxCell id="qKPnsL4N-a03p9FC6tCx-10" value="Image" style="whiteSpace=wrap;html=1;rounded=1;" vertex="1" parent="1">
          <mxGeometry x="565" y="460" width="120" height="60" as="geometry" />
        </mxCell>
        <mxCell id="qKPnsL4N-a03p9FC6tCx-12" value="Color" style="whiteSpace=wrap;html=1;rounded=1;" vertex="1" parent="1">
          <mxGeometry x="-20" y="460" width="120" height="60" as="geometry" />
        </mxCell>
        <mxCell id="qKPnsL4N-a03p9FC6tCx-14" value="Color" style="whiteSpace=wrap;html=1;rounded=1;" vertex="1" parent="1">
          <mxGeometry x="-230" y="460" width="120" height="60" as="geometry" />
        </mxCell>
        <mxCell id="qKPnsL4N-a03p9FC6tCx-16" value="Network Image" style="whiteSpace=wrap;html=1;rounded=1;" vertex="1" parent="1">
          <mxGeometry x="565" y="600" width="120" height="60" as="geometry" />
        </mxCell>
      </root>
    </mxGraphModel>
  </diagram>
</mxfile>
